<svg xmlns="http://www.w3.org/2000/svg" width="32" height="32" style=""><rect id="backgroundrect" width="100%" height="100%" x="0" y="0" fill="none" stroke="none"/><g class="currentLayer" style=""><title>Layer 1</title><path d="m15.06 21.06 8-8a1.5 1.5 0 1 0-2.12-2.12l-.001.001-6.94 6.938-2.94-2.938a1.5 1.5 0 1 0-2.12 2.12l.001.001 4 4a1.49 1.49 0 0 0 2.12 0M15.998 2C8.27 2 2 8.268 2 16s6.27 14 14 14c7.732 0 14-6.268 14-14S23.733 2 16 2m0 3c6.066 0 11 4.934 11 11s-4.933 11-11 11C9.934 27 5 22.066 5 16S9.935 5 16 5" id="svg_1" class="selected" fill="#ffffff" fill-opacity="1" stroke="none"/></g></svg>